# xmcd
#
# Track frame offsets: 
#        150
#        8708
#        17038
#        29295
#        42630
#        50340
#        60418
#        67265
#        81805
#        91150
#        106895
#        114993
#        125298
#        135750
#        145685
#        150855
#        163138
#        195885
#        229568
#        263918
#        295903
#
# Disc length: 4355 seconds
#
# Revision: 5
# Processed by: cddbd v1.5.2PL0 Copyright (c) Steve Scherf et al.
# Submitted via: ExactAudioCopy v1.0b3
#
DISCID=06110115
DTITLE=Gabriel Fauré - Intégrale de l'œuvre pour piano seul – CD4 Pièc
DTITLE=es brèves, Préludes, Valses-Caprices, Mazurkas
DYEAR=1988
DGENRE=Moderne
TTITLE0=Pièces brèves pour piano op. 84 n° 1 - Capriccio en mi bémol m
TTITLE0=ajeur
TTITLE1=Pièces brèves pour piano op. 84 n° 2 - Fantaisie en la bémol m
TTITLE1=ajeur
TTITLE2=Pièces brèves pour piano op. 84 n° 3 - Fugue en la mineur
TTITLE3=Pièces brèves pour piano op. 84 n° 4 - Adagietto en mi mineur
TTITLE4=Pièces brèves pour piano op. 84 n° 5 - Improvisation en ut diè
TTITLE4=se mineur
TTITLE5=Pièces brèves pour piano op. 84 n° 6 - Fugue en mi mineur
TTITLE6=Pièces brèves pour piano op. 84 n° 7 - Allégresse en ut majeur
TTITLE7=Préludes op. 103 - n° 1  en ré bémol majeur - Andante molto mo
TTITLE7=derato
TTITLE8=Préludes op. 103 - n° 2  en ut dièse mineur - Allegro
TTITLE9=Préludes op. 103 - n° 3  en sol mineur - Andante
TTITLE10=Préludes op. 103 - n° 4  en fa majeur - Allegretto moderato
TTITLE11=Préludes op. 103 - n° 5  en ré mineur - Allegro
TTITLE12=Préludes op. 103 - n° 6  en mi bémol mineur - Andante
TTITLE13=Préludes op. 103 - n° 7  en la majeur - Andante moderato
TTITLE14=Préludes op. 103 - n° 8  en ut mineur - Allegro
TTITLE15=Préludes op. 103 - n° 9  en mi mineur - Adagio
TTITLE16=Valse-caprice n° 1  en la majeur op. 30 - Allegro moderato
TTITLE17=Valse-caprice n° 2  en ré bémol majeur op. 38 - Allegretto mo
TTITLE17=derato
TTITLE18=Valse-caprice n° 3  en sol bémol majeur op. 59 - Allegro mode
TTITLE18=rato
TTITLE19=Valse-caprice n° 4  en la bémol majeur op. 62 - Molto moderat
TTITLE19=o quasi lento
TTITLE20=Mazurka en si bémol majeur op. 32
EXTD=YEAR: 1988
EXTT0=
EXTT1=
EXTT2=
EXTT3=
EXTT4=
EXTT5=
EXTT6=
EXTT7=
EXTT8=
EXTT9=
EXTT10=
EXTT11=
EXTT12=
EXTT13=
EXTT14=
EXTT15=
EXTT16=
EXTT17=
EXTT18=
EXTT19=
EXTT20=
PLAYORDER=
